<svg width="1242" height="600" viewBox="0 0 1242 600" fill="none" xmlns="http://www.w3.org/2000/svg">
<g opacity="0.1">
<path d="M1008.9 -61.017L1164.35 34.5093" stroke="#F8F8F8" stroke-width="8" stroke-linecap="round"/>
<path d="M1250.47 -137.698L1349.53 7.97124" stroke="#F8F8F8" stroke-width="8" stroke-linecap="round"/>
<path d="M797.369 20.7998L953.752 115.029" stroke="#F8F8F8" stroke-width="8" stroke-linecap="round"/>
<path d="M252.058 -63.2552L408.441 30.9735" stroke="#F8F8F8" stroke-width="8" stroke-linecap="round"/>
<path d="M1029.58 172.202L1185.97 266.431" stroke="#F8F8F8" stroke-width="8" stroke-linecap="round"/>
<path d="M613.128 -70.024L688.539 87.1262" stroke="#F8F8F8" stroke-width="8" stroke-linecap="round"/>
<path d="M67.8159 -154.079L143.226 3.07124" stroke="#F8F8F8" stroke-width="8" stroke-linecap="round"/>
<path d="M579.047 208.441L733.052 305.915" stroke="#F8F8F8" stroke-width="8" stroke-linecap="round"/>
<path d="M33.7358 124.386L187.741 221.86" stroke="#F8F8F8" stroke-width="8" stroke-linecap="round"/>
<path d="M677.765 416.488L831.77 513.961" stroke="#F8F8F8" stroke-width="8" stroke-linecap="round"/>
<path d="M132.453 332.433L286.458 429.906" stroke="#F8F8F8" stroke-width="8" stroke-linecap="round"/>
<path d="M908.852 515.431L1062.86 612.905" stroke="#F8F8F8" stroke-width="8" stroke-linecap="round"/>
<path d="M363.54 431.376L517.545 528.85" stroke="#F8F8F8" stroke-width="8" stroke-linecap="round"/>
<path d="M1135.07 500.573L1321.51 486.643" stroke="#F8F8F8" stroke-width="8" stroke-linecap="round"/>
<path d="M809.373 328.019L995.818 314.089" stroke="#F8F8F8" stroke-width="8" stroke-linecap="round"/>
<path d="M264.062 243.964L450.506 230.034" stroke="#F8F8F8" stroke-width="8" stroke-linecap="round"/>
<path d="M633.643 550.705L671.809 718.815" stroke="#F8F8F8" stroke-width="8" stroke-linecap="round"/>
<path d="M88.3311 466.65L126.497 634.76" stroke="#F8F8F8" stroke-width="8" stroke-linecap="round"/>
<path d="M988.35 16.8187C1003.96 13.5739 1018.32 3.72713 1033.53 -1.32999C1050.92 -7.11577 1070.38 -12.5962 1085.99 -21.8374C1092.3 -25.576 1098.36 -28.978 1104.97 -32.3204C1112.5 -36.1318 1118.83 -41.893 1126.38 -45.4896C1131.8 -48.0698 1137.64 -50.4035 1143.8 -50.4035" stroke="#F8F8F8" stroke-width="8" stroke-linecap="round"/>
<path d="M777.583 98.8041C793.161 95.4296 807.426 85.4637 822.58 80.2802C839.917 74.3499 859.321 68.7078 874.833 59.3371C881.108 55.5461 887.14 52.0938 893.713 48.6966C901.209 44.8226 907.473 39.009 914.994 35.3497C920.389 32.7244 926.207 30.3422 932.359 30.291" stroke="#F8F8F8" stroke-width="8" stroke-linecap="round"/>
<path d="M232.271 14.7491C247.849 11.3746 262.114 1.40868 277.268 -3.77477C294.605 -9.70507 314.009 -15.3472 329.521 -24.7178C335.796 -28.5089 341.828 -31.9612 348.401 -35.3584C355.897 -39.2324 362.161 -45.0459 369.682 -48.7053C375.076 -51.3305 380.895 -53.7127 387.047 -53.7639" stroke="#F8F8F8" stroke-width="8" stroke-linecap="round"/>
<path d="M1009.8 250.207C1025.38 246.832 1039.64 236.866 1054.79 231.683C1072.13 225.752 1091.54 220.11 1107.05 210.74C1113.32 206.949 1119.35 203.496 1125.93 200.099C1133.42 196.225 1139.69 190.412 1147.21 186.752C1152.6 184.127 1158.42 181.745 1164.57 181.694" stroke="#F8F8F8" stroke-width="8" stroke-linecap="round"/>
<path d="M550.312 -14.4425C565.384 -9.49673 583.259 -10.7383 599.047 -7.52254C617.109 -3.84342 636.735 1.10957 655.304 0.990018C662.816 0.941654 669.923 1.0561 677.452 1.48679C686.037 1.97793 694.738 0.227068 703.217 0.910652C709.3 1.40105 715.594 2.30688 720.786 5.33526" stroke="#F8F8F8" stroke-width="8" stroke-linecap="round"/>
<path d="M557.33 286.013C572.988 282.965 587.496 273.3 602.774 268.434C620.254 262.868 639.794 257.633 655.533 248.589C661.901 244.93 668.017 241.605 674.673 238.346C682.263 234.63 688.67 228.949 696.279 225.447C701.738 222.936 707.614 220.676 713.765 220.753" stroke="#F8F8F8" stroke-width="8" stroke-linecap="round"/>
<path d="M12.0177 201.958C27.6758 198.91 42.1839 189.245 57.4624 184.379C74.9423 178.813 94.4816 173.578 110.221 164.534C116.589 160.875 122.705 157.55 129.361 154.291C136.951 150.575 143.358 144.894 150.967 141.392C156.426 138.881 162.302 136.621 168.453 136.698" stroke="#F8F8F8" stroke-width="8" stroke-linecap="round"/>
<path d="M656.05 494.059C671.708 491.011 686.216 481.346 701.495 476.481C718.975 470.914 738.514 465.679 754.254 456.635C760.621 452.976 766.738 449.651 773.393 446.392C780.983 442.676 787.39 436.995 794.999 433.494C800.458 430.982 806.334 428.722 812.485 428.799" stroke="#F8F8F8" stroke-width="8" stroke-linecap="round"/>
<path d="M110.738 410.004C126.397 406.956 140.905 397.291 156.183 392.426C173.663 386.859 193.202 381.624 208.942 372.58C215.31 368.922 221.426 365.596 228.082 362.337C235.671 358.621 242.079 352.94 249.688 349.439C255.146 346.927 261.022 344.667 267.174 344.744" stroke="#F8F8F8" stroke-width="8" stroke-linecap="round"/>
<path d="M887.137 593.002C902.795 589.954 917.304 580.289 932.582 575.423C950.062 569.857 969.601 564.622 985.341 555.578C991.709 551.919 997.825 548.594 1004.48 545.335C1012.07 541.619 1018.48 535.938 1026.09 532.436C1031.55 529.925 1037.42 527.665 1043.57 527.742" stroke="#F8F8F8" stroke-width="8" stroke-linecap="round"/>
<path d="M341.826 508.947C357.484 505.899 371.992 496.234 387.27 491.369C404.75 485.802 424.29 480.567 440.03 471.523C446.397 467.864 452.514 464.539 459.169 461.28C466.759 457.564 473.166 451.883 480.775 448.382C486.234 445.87 492.11 443.61 498.261 443.687" stroke="#F8F8F8" stroke-width="8" stroke-linecap="round"/>
<path d="M1171.7 573.263C1181.73 561.81 1186.3 545.9 1194.78 533.26C1204.49 518.798 1216.01 503.398 1221.97 487.253C1224.38 480.722 1226.83 474.595 1229.74 468.206C1233.06 460.921 1234.11 452.8 1237.59 445.67C1240.08 440.555 1243.08 435.392 1247.9 431.88" stroke="#F8F8F8" stroke-width="8" stroke-linecap="round"/>
<path d="M846.003 400.709C856.03 389.256 860.607 373.346 869.089 360.706C878.792 346.245 890.319 330.844 896.278 314.7C898.689 308.168 901.135 302.041 904.044 295.652C907.362 288.367 908.41 280.246 911.891 273.116C914.388 268.001 917.382 262.839 922.2 259.326" stroke="#F8F8F8" stroke-width="8" stroke-linecap="round"/>
<path d="M300.691 316.654C310.718 305.201 315.295 289.291 323.777 276.651C333.48 262.19 345.007 246.789 350.966 230.645C353.377 224.113 355.823 217.986 358.732 211.597C362.05 204.312 363.098 196.191 366.579 189.061C369.076 183.946 372.07 178.784 376.888 175.272" stroke="#F8F8F8" stroke-width="8" stroke-linecap="round"/>
<path d="M559.609 593.082C573.232 600.797 590.997 602.994 605.711 609.153C622.546 616.2 640.621 624.791 658.811 628.218C666.17 629.605 673.096 631.074 680.362 632.932C688.648 635.051 697.556 635 705.695 637.287C711.533 638.927 717.485 641.015 721.878 644.968" stroke="#F8F8F8" stroke-width="8" stroke-linecap="round"/>
<path d="M14.2974 509.027C27.92 516.742 45.6852 518.939 60.3994 525.098C77.2337 532.145 95.3092 540.736 113.499 544.163C120.858 545.55 127.784 547.019 135.05 548.877C143.336 550.996 152.244 550.945 160.383 553.232C166.221 554.872 172.173 556.96 176.566 560.913" stroke="#F8F8F8" stroke-width="8" stroke-linecap="round"/>
<path d="M1097.55 -81.0662C1090.37 -53.3308 1083.09 -25.5287 1075.07 2.01155C1071.85 13.0416 1068.51 24.0352 1065.72 35.164C1064.06 41.7581 1063.66 48.2582 1059.01 53.3782" stroke="#F8F8F8" stroke-width="8" stroke-linecap="round"/>
<path d="M1340.27 -122.59C1321.32 -100.003 1302.26 -77.3913 1282.63 -55.2975C1274.77 -46.4488 1266.81 -37.6835 1259.29 -28.5868C1254.83 -23.1968 1251.56 -17.4222 1245.03 -14.5039" stroke="#F8F8F8" stroke-width="8" stroke-linecap="round"/>
<path d="M885.809 0.014504C878.9 27.8086 871.896 55.67 864.149 83.276C861.046 94.3323 857.81 105.353 855.127 116.505C853.537 123.112 853.195 129.616 848.598 134.774" stroke="#F8F8F8" stroke-width="8" stroke-linecap="round"/>
<path d="M340.498 -84.0405C333.589 -56.2464 326.585 -28.3849 318.838 -0.779003C315.735 10.2774 312.499 21.2983 309.816 32.4499C308.226 39.0575 307.884 45.5607 303.287 50.7192" stroke="#F8F8F8" stroke-width="8" stroke-linecap="round"/>
<path d="M1118.02 151.417C1111.11 179.211 1104.11 207.073 1096.36 234.678C1093.26 245.735 1090.02 256.756 1087.34 267.907C1085.75 274.515 1085.41 281.018 1080.81 286.177" stroke="#F8F8F8" stroke-width="8" stroke-linecap="round"/>
<path d="M699.66 -43.3118C677.396 -23.437 655.013 -3.55276 632.156 15.7456C623.002 23.4747 613.757 31.1077 604.9 39.1265C599.651 43.8779 595.511 49.1645 588.597 51.1983" stroke="#F8F8F8" stroke-width="8" stroke-linecap="round"/>
<path d="M667.98 189.51C660.383 217.153 652.69 244.861 644.259 272.297C640.883 283.286 637.374 294.236 634.416 305.329C632.662 311.902 632.159 318.396 627.435 323.457" stroke="#F8F8F8" stroke-width="8" stroke-linecap="round"/>
<path d="M122.668 105.455C115.071 133.098 107.378 160.806 98.9473 188.242C95.5709 199.231 92.0621 210.182 89.1035 221.274C87.3505 227.847 86.8471 234.341 82.1233 239.402" stroke="#F8F8F8" stroke-width="8" stroke-linecap="round"/>
<path d="M766.701 397.557C759.104 425.2 751.411 452.907 742.98 480.344C739.604 491.333 736.095 502.283 733.137 513.376C731.384 519.948 730.88 526.443 726.156 531.504" stroke="#F8F8F8" stroke-width="8" stroke-linecap="round"/>
<path d="M221.389 313.502C213.792 341.145 206.099 368.853 197.668 396.289C194.292 407.278 190.783 418.228 187.825 429.321C186.072 435.894 185.568 442.388 180.844 447.449" stroke="#F8F8F8" stroke-width="8" stroke-linecap="round"/>
<path d="M997.787 496.5C990.19 524.142 982.497 551.85 974.067 579.287C970.69 590.276 967.182 601.226 964.223 612.319C962.47 618.891 961.967 625.386 957.243 630.447" stroke="#F8F8F8" stroke-width="8" stroke-linecap="round"/>
<path d="M452.475 412.445C444.878 440.087 437.185 467.795 428.754 495.232C425.378 506.221 421.869 517.171 418.911 528.264C417.158 534.836 416.654 541.331 411.93 546.392" stroke="#F8F8F8" stroke-width="8" stroke-linecap="round"/>
<path d="M1190.91 434.268C1204.07 460.089 1217.2 486.017 1229.58 512.163C1234.53 522.634 1239.36 533.153 1244.71 543.463C1247.88 549.571 1251.97 554.894 1251.8 561.557" stroke="#F8F8F8" stroke-width="8" stroke-linecap="round"/>
<path d="M865.212 261.714C878.374 287.536 891.508 313.463 903.883 339.609C908.84 350.081 913.667 360.6 919.019 370.909C922.19 377.018 926.275 382.34 926.103 389.003" stroke="#F8F8F8" stroke-width="8" stroke-linecap="round"/>
<path d="M319.9 177.659C333.062 203.481 346.196 229.408 358.571 255.554C363.528 266.026 368.355 276.545 373.707 286.854C376.878 292.963 380.963 298.285 380.791 304.948" stroke="#F8F8F8" stroke-width="8" stroke-linecap="round"/>
<path d="M712.233 593.352C685.953 608.542 659.555 623.719 632.828 638.233C622.123 644.046 611.351 649.747 600.871 655.9C594.661 659.546 589.414 663.926 582.19 664.596" stroke="#F8F8F8" stroke-width="8" stroke-linecap="round"/>
<path d="M166.921 509.297C140.641 524.487 114.243 539.664 87.5156 554.178C76.8108 559.991 66.0391 565.692 55.5586 571.845C49.3486 575.491 44.1018 579.871 36.8785 580.541" stroke="#F8F8F8" stroke-width="8" stroke-linecap="round"/>
</g>
</svg>
