<?xml version="1.0" encoding="UTF-8"?>
<svg xmlns="http://www.w3.org/2000/svg" xmlns:xlink="http://www.w3.org/1999/xlink" width="16px" height="16px" viewBox="0 0 16 16" version="1.1">
<g id="surface1">
<path style=" stroke:none;fill-rule:nonzero;fill:rgb(92.941176%,43.921569%,39.215686%);fill-opacity:1;" d="M 0.707031 7.183594 L 7.25 3.410156 L 13.789062 7.183594 L 13.796875 7.179688 L 13.796875 12.21875 L 7.25 16 L 0.699219 12.21875 L 0.699219 7.179688 Z M 0.707031 7.183594 "/>
<path style=" stroke:none;fill-rule:nonzero;fill:rgb(76.862745%,0%,25.490196%);fill-opacity:1;" d="M 0.699219 12.21875 L 7.25 16 L 7.25 10.960938 L 0.699219 7.179688 Z M 0.699219 12.21875 "/>
<path style=" stroke:none;fill-rule:nonzero;fill:rgb(95.686275%,21.960784%,20.392157%);fill-opacity:1;" d="M 7.25 10.960938 L 13.796875 7.179688 L 13.796875 12.21875 L 7.25 16 Z M 7.25 10.960938 "/>
<path style=" stroke:none;fill-rule:nonzero;fill:rgb(100%,54.117647%,36.078431%);fill-opacity:1;" d="M 0.355469 5.242188 L 7.25 1.265625 L 14.140625 5.242188 L 14.148438 5.238281 L 14.148438 6.984375 L 7.25 10.964844 L 0.347656 6.984375 L 0.347656 5.238281 Z M 0.355469 5.242188 "/>
<path style=" stroke:none;fill-rule:nonzero;fill:rgb(95.686275%,21.960784%,20.392157%);fill-opacity:1;" d="M 0.347656 6.984375 L 7.25 10.964844 L 7.25 9.222656 L 0.347656 5.238281 Z M 0.347656 6.984375 "/>
<path style=" stroke:none;fill-rule:nonzero;fill:rgb(100%,32.54902%,19.215686%);fill-opacity:1;" d="M 7.25 9.222656 L 14.148438 5.238281 L 14.148438 6.984375 L 7.25 10.964844 Z M 7.25 9.222656 "/>
<path style=" stroke:none;fill-rule:nonzero;fill:rgb(100%,50.588235%,17.254902%);fill-opacity:1;" d="M 4.472656 14.398438 L 2.757812 13.40625 L 2.757812 6.625 L 9.644531 2.648438 L 11.359375 3.636719 L 4.472656 7.613281 Z M 4.472656 14.398438 "/>
<path style=" stroke:none;fill-rule:nonzero;fill:rgb(100%,62.352941%,17.254902%);fill-opacity:1;" d="M 10.058594 14.378906 L 11.773438 13.386719 L 11.773438 6.605469 L 4.886719 2.628906 L 3.171875 3.617188 L 10.058594 7.589844 Z M 10.058594 14.378906 "/>
<path style=" stroke:none;fill-rule:nonzero;fill:rgb(100%,84.705882%,0%);fill-opacity:1;" d="M 10.058594 7.589844 L 11.773438 6.605469 L 4.886719 2.628906 L 3.171875 3.617188 Z M 10.058594 7.589844 "/>
<path style=" stroke:none;fill-rule:nonzero;fill:rgb(100%,84.705882%,0%);fill-opacity:1;" d="M 4.472656 7.613281 L 2.757812 6.625 L 9.644531 2.648438 L 11.359375 3.636719 Z M 4.472656 7.613281 "/>
<path style=" stroke:none;fill-rule:nonzero;fill:rgb(94.117647%,76.862745%,9.803922%);fill-opacity:1;" d="M 14.371094 6.40625 L 13.976562 5.429688 L 15.652344 4.894531 L 7.824219 3.484375 L 6.546875 4.992188 Z M 14.371094 6.40625 "/>
<path style=" stroke:none;fill-rule:nonzero;fill:rgb(94.117647%,76.862745%,9.803922%);fill-opacity:1;" d="M 7.183594 11.457031 L 6.371094 10.789062 L 5.359375 12.230469 L 6.347656 4.339844 L 8.171875 3.570312 Z M 7.183594 11.457031 "/>
<path style=" stroke:none;fill-rule:nonzero;fill:rgb(100%,84.705882%,0%);fill-opacity:1;" d="M 7.839844 4.207031 C 7.71875 4.058594 7.683594 3.863281 7.742188 3.683594 C 8.042969 2.785156 8.886719 0.484375 10.289062 0.0585938 C 11.605469 -0.339844 13.257812 1.367188 12.210938 2.984375 C 11.375 4.277344 9.398438 4.65625 8.625 4.757812 C 8.433594 4.78125 8.242188 4.707031 8.121094 4.554688 Z M 7.839844 4.207031 "/>
<path style=" stroke:none;fill-rule:nonzero;fill:rgb(86.27451%,65.490196%,0%);fill-opacity:1;" d="M 11.277344 1.910156 C 11.898438 1.570312 12.222656 1.957031 12.011719 2.582031 C 11.800781 3.207031 10.71875 3.800781 10.078125 4.113281 C 9.433594 4.429688 8.550781 4.542969 8.550781 4.542969 C 8.550781 4.542969 10.660156 2.246094 11.277344 1.910156 Z M 11.277344 1.910156 "/>
<path style=" stroke:none;fill-rule:nonzero;fill:rgb(100%,88.627451%,32.156863%);fill-opacity:1;" d="M 5.738281 4.117188 C 5.949219 3.949219 6.195312 3.859375 6.441406 3.839844 C 6.765625 3.816406 7.054688 3.648438 7.242188 3.378906 C 7.378906 3.175781 7.578125 3.007812 7.832031 2.90625 C 8.367188 2.695312 8.996094 2.875 9.339844 3.339844 C 9.808594 3.972656 9.613281 4.851562 8.949219 5.234375 C 8.773438 5.335938 8.578125 5.390625 8.386719 5.402344 C 8.074219 5.421875 7.792969 5.582031 7.621094 5.84375 C 7.515625 6.007812 7.371094 6.144531 7.191406 6.25 C 6.527344 6.632812 5.667969 6.363281 5.355469 5.640625 C 5.125 5.109375 5.285156 4.476562 5.738281 4.117188 Z M 5.738281 4.117188 "/>
<path style=" stroke:none;fill-rule:nonzero;fill:rgb(100%,84.705882%,0%);fill-opacity:1;" d="M 6.226562 4.882812 C 6.125 4.722656 5.949219 4.625 5.757812 4.621094 C 4.8125 4.609375 2.363281 4.660156 1.503906 5.851562 C 0.699219 6.964844 1.777344 9.082031 3.648438 8.617188 C 5.140625 8.25 6.140625 6.503906 6.488281 5.804688 C 6.574219 5.632812 6.566406 5.425781 6.464844 5.261719 Z M 6.226562 4.882812 "/>
<path style=" stroke:none;fill-rule:nonzero;fill:rgb(86.27451%,65.490196%,0%);fill-opacity:1;" d="M 2.933594 7.386719 C 2.410156 7.859375 2.667969 8.296875 3.328125 8.296875 C 3.988281 8.300781 4.902344 7.472656 5.410156 6.96875 C 5.914062 6.460938 6.308594 5.664062 6.308594 5.664062 C 6.308594 5.664062 3.453125 6.910156 2.933594 7.386719 Z M 2.933594 7.386719 "/>
</g>
</svg>
